<?xml version="1.0" encoding="UTF-8"?><svg id="Layer_1" xmlns="http://www.w3.org/2000/svg" viewBox="0 0 1024 1024"><defs><style>.cls-1{fill:#fff;}.cls-2{fill:#171717;}.cls-3{fill:#0047ff;}</style></defs><rect class="cls-3" x="176.4" y="176.4" width="671.19" height="671.19" rx="170.14" ry="170.14"/><path class="cls-1" d="M387.63,706.4c4.65,4.65,4.65,12.18,0,16.83h0c-4.65,4.65-12.18,4.65-16.83,0l-26.6-26.6-26.6,26.6c-4.65,4.65-12.18,4.65-16.83,0h0c-4.65-4.65-4.65-12.18,0-16.83l26.6-26.6-26.6-26.6c-4.65-4.65-4.65-12.18,0-16.83h0c4.65-4.65,12.18-4.65,16.83,0l26.6,26.6,26.6-26.6c4.65-4.65,12.18-4.65,16.83,0h0c4.65,4.65,4.65,12.18,0,16.83l-26.6,26.6,26.6,26.6Z"/><path class="cls-1" d="M393.72,356.1h-37.62v37.62c0,6.57-5.33,11.9-11.9,11.9h0c-6.57,0-11.9-5.33-11.9-11.9v-37.62h-37.62c-6.57,0-11.9-5.33-11.9-11.9s5.33-11.9,11.9-11.9h37.62v-37.62c0-6.57,5.33-11.9,11.9-11.9h0c6.57,0,11.9,5.33,11.9,11.9v37.62h37.62c6.57,0,11.9,5.33,11.9,11.9s-5.33,11.9-11.9,11.9Z"/><rect class="cls-1" x="618.38" y="332.3" width="122.83" height="23.8" rx="11.9" ry="11.9"/><path class="cls-2" d="M512,512h335.6v165.45c0,93.91-76.24,170.14-170.14,170.14h-165.45v-335.6h0Z"/><rect class="cls-1" x="618.38" y="686.84" width="122.83" height="23.8" rx="11.9" ry="11.9"/><path class="cls-1" d="M729.32,649.57h-99.04c-6.57,0-11.9-5.33-11.9-11.9s5.33-11.9,11.9-11.9h99.04c6.57,0,11.9,5.33,11.9,11.9s-5.33,11.9-11.9,11.9Z"/></svg>