<?xml version="1.0" encoding="UTF-8"?><svg id="Layer_1" xmlns="http://www.w3.org/2000/svg" viewBox="0 0 1024 1024"><defs><style>.cls-1{fill:#fff;}.cls-2{fill:#171717;}.cls-3{fill:#0047ff;}</style></defs><rect class="cls-3" x="176.4" y="176.4" width="671.19" height="671.19" rx="170.14" ry="170.14"/><path class="cls-1" d="M414.03,695.43c5.1,5.1,5.1,13.37,0,18.47h0c-5.1,5.1-13.37,5.1-18.47,0l-29.21-29.21-29.21,29.21c-5.1,5.1-13.37,5.1-18.47,0h0c-5.1-5.1-5.1-13.37,0-18.47l29.21-29.21-29.21-29.21c-5.1-5.1-5.1-13.37,0-18.47h0c5.1-5.1,13.37-5.1,18.47,0l29.21,29.21,29.21-29.21c5.1-5.1,13.37-5.1,18.47,0h0c5.1,5.1,5.1,13.37,0,18.47l-29.21,29.21,29.21,29.21Z"/><path class="cls-1" d="M420.71,380.73h-41.31v41.31c0,7.21-5.85,13.06-13.06,13.06h0c-7.21,0-13.06-5.85-13.06-13.06v-41.31h-41.31c-7.21,0-13.06-5.85-13.06-13.06s5.85-13.06,13.06-13.06h41.31v-41.31c0-7.21,5.85-13.06,13.06-13.06h0c7.21,0,13.06,5.85,13.06,13.06v41.31h41.31c7.21,0,13.06,5.85,13.06,13.06s-5.85,13.06-13.06,13.06Z"/><rect class="cls-1" x="600.23" y="354.61" width="134.86" height="26.13" rx="13.06" ry="13.06"/><path class="cls-2" d="M512,512h335.6v165.45c0,93.91-76.24,170.14-170.14,170.14h-165.45v-335.6h0Z"/><rect class="cls-1" x="600.23" y="691.61" width="134.86" height="26.13" rx="13.06" ry="13.06"/><path class="cls-1" d="M722.03,650.69h-108.74c-7.21,0-13.06-5.85-13.06-13.06s5.85-13.06,13.06-13.06h108.74c7.21,0,13.06,5.85,13.06,13.06s-5.85,13.06-13.06,13.06Z"/></svg>